<svg width="181" height="226" viewBox="0 0 181 226" fill="none" xmlns="http://www.w3.org/2000/svg">
<g clip-path="url(#clip0_4003_188)">
<path d="M87.8554 121.333C78.3792 121.333 71.2066 118.859 66.3285 113.91C61.4547 108.962 59.0202 101.677 59.0202 92.055V51.6437C59.0202 50.3378 59.3952 49.307 60.1496 48.5508C60.9084 47.7263 61.9382 47.3139 63.2389 47.3139C64.4767 47.3139 65.4704 47.7263 66.2291 48.5508C66.9834 49.307 67.3583 50.3378 67.3583 51.6437V92.7767C67.3583 99.8556 69.0747 105.182 72.5074 108.756C76.0122 112.329 81.1254 114.116 87.8554 114.116C94.5809 114.116 99.6623 112.329 103.095 108.756C106.528 105.182 108.244 99.8556 108.244 92.7767V51.6437C108.244 50.3378 108.624 49.307 109.378 48.5508C110.2 47.7263 111.23 47.3139 112.467 47.3139C113.773 47.3139 114.802 47.7263 115.557 48.5508C116.311 49.307 116.69 50.3378 116.69 51.6437V92.055C116.69 101.608 114.215 108.893 109.274 113.91C104.4 118.859 97.2595 121.333 87.8554 121.333Z" fill="#C679F6"/>
<path d="M115.485 46.4619L100.124 41.1889C98.407 40.5993 96.6229 42.3495 96.7946 44.1586C97.7071 53.9476 94.613 75.7712 92.436 89.9285C92.165 91.6786 94.2563 92.6785 95.39 91.3196C108.656 75.4329 115.137 56.4949 116.646 48.3938C116.804 47.5482 116.298 46.7407 115.485 46.4619Z" fill="#A141DD"/>
<path d="M58.7456 49.005C65.0061 82.6032 80.7062 102.795 91.5103 111.858C92.9602 113.072 94.6809 111.422 93.8049 109.748C84.6403 92.2522 74.8344 61.1408 79.2247 43.165C79.6042 41.6128 78.0595 40.0641 76.5687 40.6325L59.8748 46.9907C59.0663 47.2989 58.5874 48.1516 58.7456 49.005Z" fill="#A141DD"/>
<path d="M87.4329 32.2471C96.3134 32.2471 103.513 25.0303 103.513 16.128C103.513 7.22546 96.3134 0.00878906 87.4329 0.00878906C78.5523 0.00878906 71.3533 7.22546 71.3533 16.128C71.3533 25.0303 78.5523 32.2471 87.4329 32.2471Z" fill="#C679F6"/>
<path d="M85.0651 173.638C84.672 176.438 83.8419 178.973 82.5749 181.248C81.3079 183.478 79.7132 185.38 77.7911 186.956C75.9124 188.529 73.7717 189.753 71.3687 190.629C69.0097 191.461 66.4977 191.876 63.8325 191.876C61.1677 191.876 58.7429 191.461 56.5584 190.629C54.4178 189.753 52.6264 188.529 51.1849 186.956C49.7431 185.38 48.6945 183.478 48.0392 181.248C47.4277 178.973 47.3183 176.438 47.7114 173.638L51.8402 144.249H60.0973L56.0341 173.376C55.8593 174.513 55.8593 175.715 56.0341 176.983C56.2089 178.207 56.624 179.346 57.2793 180.396C57.9348 181.444 58.8741 182.32 60.0973 183.019C61.3643 183.675 62.9806 184.003 64.9467 184.003C66.9126 184.003 68.6163 183.675 70.0583 183.019C71.4999 182.32 72.6795 181.444 73.5971 180.396C74.558 179.346 75.3009 178.207 75.8252 176.983C76.3493 175.715 76.6989 174.513 76.8736 173.376L80.9366 144.249H89.1937L85.0651 173.638ZM125.74 155.139C124.254 153.302 122.769 152.077 121.284 151.465C119.798 150.853 118.247 150.547 116.631 150.547C114.228 150.547 111.978 150.984 109.881 151.859C107.828 152.689 105.993 153.87 104.376 155.401C102.76 156.888 101.427 158.637 100.379 160.649C99.3303 162.661 98.6532 164.826 98.3472 167.144C97.9977 169.637 98.0415 171.932 98.4784 174.032C98.9589 176.131 99.7888 177.947 100.968 179.476C102.148 181.007 103.655 182.21 105.49 183.085C107.325 183.959 109.444 184.396 111.847 184.396C113.725 184.396 115.604 183.959 117.483 183.085C119.361 182.166 121.218 180.723 123.053 178.754L129.213 183.609C126.679 186.497 123.818 188.595 120.628 189.908C117.439 191.22 114.141 191.876 110.733 191.876C107.15 191.876 103.939 191.306 101.1 190.17C98.2598 188.99 95.9008 187.348 94.0221 185.25C92.1872 183.108 90.8546 180.548 90.0245 177.574C89.2381 174.6 89.1073 171.298 89.6314 167.668C90.1557 163.951 91.226 160.583 92.8425 157.566C94.5026 154.504 96.5559 151.902 99.0025 149.759C101.493 147.616 104.311 145.976 107.456 144.839C110.646 143.658 114.031 143.068 117.614 143.068C120.76 143.068 123.577 143.636 126.068 144.774C128.601 145.867 130.852 147.747 132.817 150.415L125.74 155.139ZM130.561 167.668C131.085 163.951 132.156 160.583 133.772 157.566C135.432 154.504 137.486 151.902 139.932 149.759C142.422 147.616 145.24 145.976 148.386 144.839C151.575 143.658 154.961 143.068 158.544 143.068C162.17 143.024 165.403 143.571 168.242 144.708C171.126 145.801 173.507 147.419 175.385 149.562C177.264 151.706 178.596 154.286 179.383 157.303C180.169 160.321 180.3 163.689 179.776 167.406C179.252 171.036 178.181 174.338 176.565 177.312C174.949 180.286 172.895 182.845 170.405 184.987C167.915 187.13 165.075 188.813 161.886 190.038C158.697 191.22 155.289 191.832 151.663 191.876C148.08 191.876 144.869 191.306 142.029 190.17C139.19 188.99 136.83 187.348 134.952 185.25C133.117 183.108 131.785 180.548 130.954 177.574C130.168 174.6 130.037 171.298 130.561 167.668ZM139.277 167.144C138.927 169.637 138.971 171.932 139.408 174.032C139.888 176.131 140.719 177.947 141.898 179.476C143.078 181.007 144.585 182.21 146.42 183.085C148.255 183.959 150.374 184.396 152.777 184.396C155.179 184.396 157.43 183.959 159.526 183.085C161.624 182.21 163.48 181.007 165.097 179.476C166.713 177.947 168.046 176.131 169.094 174.032C170.143 171.932 170.842 169.637 171.191 167.144C171.497 164.826 171.41 162.661 170.929 160.649C170.492 158.637 169.684 156.888 168.504 155.401C167.325 153.87 165.796 152.689 163.917 151.859C162.082 150.984 159.963 150.547 157.561 150.547C155.158 150.547 152.908 150.984 150.811 151.859C148.757 152.689 146.922 153.87 145.306 155.401C143.689 156.888 142.357 158.637 141.308 160.649C140.26 162.661 139.583 164.826 139.277 167.144Z" fill="#A141DD"/>
<path d="M4.57022 225.47H2.05066V204.002H4.57022V225.47ZM42.6152 225.47H41.8536L28.2596 209.899V225.47H25.6814V204.002H26.4431L40.1252 219.781V204.002H42.6152V225.47ZM72.3004 208.725C71.5189 207.671 70.8549 206.965 70.3082 206.615C69.7613 206.241 69.1167 206.057 68.3744 206.057C67.652 206.057 67.0368 206.291 66.5288 206.761C66.0405 207.228 65.7964 207.836 65.7964 208.579C65.7964 209.301 66.0306 209.936 66.4996 210.486C66.9683 211.033 68.0426 211.932 69.7222 213.184C71.4212 214.414 72.6616 215.579 73.443 216.674C74.2242 217.769 74.6148 218.922 74.6148 220.134C74.6148 221.718 73.9996 223.095 72.769 224.268C71.5581 225.423 70.142 226 68.521 226C65.6693 226 63.4329 224.406 61.8119 221.219L63.9506 219.988C65.2201 222.353 66.646 223.537 68.2281 223.537C69.2438 223.537 70.1128 223.214 70.8356 222.569C71.5581 221.924 71.9195 221.17 71.9195 220.311C71.9195 219.45 71.6166 218.639 71.0114 217.876C70.4057 217.094 69.3608 216.146 67.8766 215.031C66.392 213.897 65.3665 213.038 64.8002 212.45C64.2533 211.863 63.8531 211.238 63.5989 210.572C63.3451 209.909 63.2182 209.243 63.2182 208.579C63.2182 207.15 63.7066 205.948 64.683 204.97C65.6791 203.975 66.9583 203.476 68.521 203.476C69.7321 203.476 70.7868 203.788 71.685 204.413C72.5835 205.021 73.4625 205.929 74.3219 207.141L72.3004 208.725ZM109.744 216.907C109.744 219.078 109.519 220.749 109.07 221.924C108.64 223.076 107.859 224.044 106.726 224.825C105.613 225.608 104.304 226 102.8 226C101.609 226 100.535 225.813 99.5776 225.443C98.6205 225.051 97.8196 224.513 97.1752 223.83C96.5501 223.126 96.1009 222.353 95.8274 221.513C95.5542 220.652 95.4174 219.119 95.4174 216.907V204.002H97.937V216.907C97.937 218.297 97.9759 219.302 98.0541 219.929C98.1322 220.535 98.3568 221.131 98.7279 221.718C99.0989 222.285 99.6263 222.743 100.31 223.095C101.013 223.428 101.804 223.596 102.683 223.596C103.738 223.596 104.646 223.292 105.408 222.686C106.189 222.061 106.687 221.346 106.902 220.545C107.136 219.723 107.253 218.511 107.253 216.907V204.002H109.744V216.907ZM145.465 225.47H142.301L134.742 215.676H133.863V225.47H131.344V204.002H135.738C138.082 204.002 139.694 204.111 140.573 204.325C141.451 204.522 142.213 204.865 142.858 205.354C143.502 205.841 144.01 206.478 144.381 207.26C144.752 208.021 144.938 208.873 144.938 209.81C144.938 211.591 144.332 213.017 143.121 214.092C141.91 215.148 140.162 215.676 137.877 215.676L145.465 225.47ZM133.863 213.212H137.291C139.01 213.231 140.279 212.978 141.1 212.45C141.92 211.902 142.33 211.043 142.33 209.868C142.33 208.676 141.93 207.817 141.129 207.287C140.328 206.739 139.078 206.469 137.379 206.469H133.863V213.212ZM178.232 206.496H168.271V212.654H178.144V215.119H168.271V222.978H178.144V225.47H165.751V204.002H178.232V206.496Z" fill="#2E2E2E"/>
<path fill-rule="evenodd" clip-rule="evenodd" d="M24.7715 145.656H6.48784L5.32329 153.993C10.8547 152.725 16.3894 151.452 21.9277 150.176C22.1922 150.103 22.4847 150.146 22.7171 150.291C27.8292 153.212 32.9445 156.116 38.0618 159.003C38.3249 159.107 38.4687 159.362 38.3989 159.603C38.1776 161.039 37.9691 162.48 37.7605 163.922C37.5001 165.723 37.2397 167.525 36.954 169.32C36.7899 170.38 36.5361 171.425 36.1953 172.446C35.1021 175.694 33.1181 178.628 30.4142 180.997C26.9564 184.043 22.8243 185.983 17.8583 186.543C17.3209 186.613 16.766 186.531 16.2711 186.31C12.0271 184.506 8.49408 181.58 6.1874 177.955C4.59587 175.587 3.53464 173.006 3.03748 170.357L0.00012207 192.102H17.3007C20.0968 192.102 23.0022 191.643 26.0165 190.725C29.0746 189.761 31.9144 188.34 34.5358 186.46C37.1572 184.536 39.4288 182.131 41.3511 179.243C43.2736 176.313 44.5186 172.859 45.0865 168.879C45.6546 164.943 45.4799 161.532 44.5622 158.645C43.6447 155.715 42.225 153.288 40.3027 151.363C38.424 149.439 36.1305 148.018 33.4217 147.099C30.713 146.137 27.8296 145.656 24.7715 145.656Z" fill="#A141DD"/>
</g>
<defs>
<clipPath id="clip0_4003_188">
<rect width="181" height="226" fill="white"/>
</clipPath>
</defs>
</svg>
