<svg width="351" height="165" viewBox="0 0 351 165" fill="none" xmlns="http://www.w3.org/2000/svg">
<mask id="mask0_4020_6490" style="mask-type:luminance" maskUnits="userSpaceOnUse" x="0" y="0" width="351" height="165">
<path d="M351 0H0V164.591H351V0Z" fill="white"/>
</mask>
<g mask="url(#mask0_4020_6490)">
<path d="M1.83533 20.0088L19.1287 122.67L21.023 45.6029M1.83533 20.0088L31.0447 4.50415M1.83533 20.0088L21.023 45.6029M21.023 45.6029L47.2381 54.6093L77.4555 49.7926M21.023 45.6029L38.4387 22.973M31.0447 4.50415L65.6924 5.7582L96.9183 22.973M31.0447 4.50415L38.4387 22.973M77.4555 49.7926L108.101 45.6029L96.9183 22.973M77.4555 49.7926L72.8419 33.4044M38.4387 22.973L72.8419 33.4044M96.9183 22.973L72.8419 33.4044" stroke="black" stroke-width="0.707521"/>
<path fill-rule="evenodd" clip-rule="evenodd" d="M18.8174 122.728L47.1849 55.0805L78.0304 50.1642L108.812 45.9657L108.828 62.3627L77.4499 95.8232H67.1532L74.6085 122.728H65.6867L47.1101 98.1032L28.0447 122.728H18.8174ZM39.4696 87.0481L89.5781 56.9485C84.3207 61.8316 72.3708 74.6899 66.6202 87.0481L60.2042 80.201L39.4696 87.0481Z" fill="#1F3287"/>
<path d="M38.5013 6.27027C38.5013 9.73325 35.4918 12.5405 31.7795 12.5405C28.067 12.5405 25.0576 9.73325 25.0576 6.27027C25.0576 2.80729 28.067 0 31.7795 0C35.4918 0 38.5013 2.80729 38.5013 6.27027Z" fill="#00A5CF"/>
<path d="M42.0421 23.7154C42.0421 25.6043 40.4007 27.1356 38.3757 27.1356C36.3506 27.1356 34.7092 25.6043 34.7092 23.7154C34.7092 21.8264 36.3506 20.2952 38.3757 20.2952C40.4007 20.2952 42.0421 21.8264 42.0421 23.7154Z" fill="#00A5CF"/>
<path d="M75.5291 33.0625C75.5291 34.6366 74.1612 35.9128 72.4738 35.9128C70.7863 35.9128 69.4184 34.6366 69.4184 33.0625C69.4184 31.4884 70.7863 30.2124 72.4738 30.2124C74.1612 30.2124 75.5291 31.4884 75.5291 33.0625Z" fill="#00A5CF"/>
<path d="M6.11072 20.6352C6.11072 22.2092 4.7428 23.4853 3.05537 23.4853C1.36793 23.4853 0 22.2092 0 20.6352C0 19.0611 1.36793 17.785 3.05537 17.785C4.7428 17.785 6.11072 19.0611 6.11072 20.6352Z" fill="#00A5CF"/>
<path d="M68.5656 5.92923C68.5656 7.50331 67.1975 8.77936 65.5101 8.77936C63.8227 8.77936 62.4549 7.50331 62.4549 5.92923C62.4549 4.35516 63.8227 3.0791 65.5101 3.0791C67.1975 3.0791 68.5656 4.35516 68.5656 5.92923Z" fill="#00A5CF"/>
<path d="M100.094 23.6005C100.094 25.8042 98.1793 27.5907 95.8169 27.5907C93.4546 27.5907 91.5394 25.8042 91.5394 23.6005C91.5394 21.3969 93.4546 19.6104 95.8169 19.6104C98.1793 19.6104 100.094 21.3969 100.094 23.6005Z" fill="#00A5CF"/>
<path d="M27.0099 44.5775C27.0099 47.411 24.5475 49.7078 21.5101 49.7078C18.4728 49.7078 16.0104 47.411 16.0104 44.5775C16.0104 41.7442 18.4728 39.4474 21.5101 39.4474C24.5475 39.4474 27.0099 41.7442 27.0099 44.5775Z" fill="#00A5CF"/>
<path d="M140.397 122.784H99.7984V86.1683H145.624L140.397 91.3992H105.406V117.554H140.397V122.784ZM135.631 107.092H108.21V101.861H135.631V107.092ZM203.182 122.784H197.574V112.323H167.138V107.092H197.574V91.3992H177.443C174.9 91.3992 172.565 91.9921 170.434 93.1777C168.303 94.3285 166.602 95.8978 165.332 97.8854C164.098 99.8733 163.48 102.07 163.48 104.476V122.784H157.874V104.476C157.874 101.966 158.377 99.6117 159.387 97.4148C160.396 95.1829 161.799 93.2301 163.594 91.5561C165.387 89.8473 167.462 88.5223 169.818 87.5808C172.21 86.6391 174.752 86.1683 177.443 86.1683H203.182V122.784ZM269.119 122.784H261.549L249.774 112.323H232.558V107.144H255.1C256.671 107.144 258.091 106.795 259.363 106.098C260.634 105.366 261.641 104.407 262.39 103.221C263.138 102.001 263.511 100.675 263.511 99.2456C263.511 97.781 263.138 96.4557 262.39 95.27C261.641 94.0845 260.634 93.1428 259.363 92.4454C258.091 91.7479 256.671 91.3992 255.1 91.3992H229.417V122.784H223.811V86.1683H255.1C257.68 86.1683 260.036 86.7612 262.167 87.9469C264.296 89.0977 265.979 90.6669 267.212 92.6546C268.483 94.6424 269.119 96.8393 269.119 99.2456C269.119 101.408 268.595 103.413 267.548 105.261C266.54 107.109 265.138 108.644 263.343 109.864C261.586 111.05 259.587 111.817 257.344 112.166L269.119 122.784ZM330.833 112.323C330.833 114.241 330.328 116.002 329.318 117.606C328.309 119.175 326.963 120.43 325.28 121.372C323.598 122.314 321.711 122.784 319.617 122.784H285.523L286.89 117.554H319.617C321.187 117.554 322.515 117.048 323.598 116.037C324.682 114.99 325.225 113.752 325.225 112.323C325.225 110.893 324.682 109.672 323.598 108.661C322.515 107.615 321.187 107.092 319.617 107.092H296.74C294.682 107.092 292.795 106.621 291.074 105.679C289.393 104.738 288.047 103.483 287.038 101.913C286.029 100.309 285.523 98.548 285.523 96.6301C285.523 94.7121 286.029 92.9685 287.038 91.3992C288.047 89.7951 289.393 88.5223 291.074 87.5808C292.795 86.6391 294.682 86.1683 296.74 86.1683H333.04L328.029 91.3992H296.74C295.205 91.3992 293.88 91.9223 292.757 92.9685C291.674 93.9798 291.131 95.2003 291.131 96.6301C291.131 98.0598 291.674 99.2978 292.757 100.344C293.88 101.355 295.205 101.861 296.74 101.861H319.617C321.711 101.861 323.598 102.332 325.28 103.273C326.963 104.215 328.309 105.488 329.318 107.092C330.328 108.661 330.833 110.405 330.833 112.323Z" fill="#1F3287"/>
<path d="M140.396 122.783V123.638H140.701L141.634 122.783H140.396ZM99.7975 122.783H98.8807V123.638H99.7975V122.783ZM99.7975 86.1673V85.3123H98.8807V86.1673H99.7975ZM145.285 86.1673L147.846 85.3123H146.201H145.285V86.1673ZM140.396 91.3982V92.2532L141.313 91.3982H140.396ZM105.405 91.3982V90.5431H104.488V91.3982H105.405ZM105.405 117.552H104.488V118.408H105.405V117.552ZM135.63 107.091V107.946H135.568L135.63 107.091ZM108.209 107.091H107.292V107.946H108.209V107.091ZM108.209 101.86V101.005H107.292V101.86H108.209ZM139.296 101.86L142.998 101.005H139.296V101.86ZM140.396 121.928H99.7975V123.638H140.396V121.928ZM100.714 122.783V86.1673H98.8807V122.783H100.714ZM99.7975 87.0225H145.285V85.3123H99.7975V87.0225ZM144.369 86.1673L139.48 91.3982H141.313L147.846 85.3123L144.369 86.1673ZM140.396 90.5431H105.405V92.2532H140.396V90.5431ZM104.488 91.3982V117.552H106.322V91.3982H104.488ZM105.405 118.408H140.396L140.184 122.327L148.143 116.697H144.063H105.405V118.408ZM143.728 118.408L139.48 122.783H141.634L148.143 116.697L143.728 118.408ZM135.63 106.236H108.209V107.946H135.63V106.236ZM109.125 107.091V101.86H107.292V107.091H109.125ZM108.209 102.715H135.63L139.296 101.86V101.005H108.209V102.715ZM134.712 101.86V107.091L135.568 107.946L142.998 101.005L134.712 101.86ZM203.181 122.783V123.638H204.098V122.783H203.181ZM197.573 122.783H196.657V123.638H197.573V122.783ZM197.573 112.322H198.489V111.467H197.573V112.322ZM166.228 112.322H165.686V113.177H166.228V112.322ZM167.138 107.091L167.144 106.236H165.698V107.091H167.138ZM197.573 107.091V107.946H198.489V107.091H197.573ZM197.573 91.3982H198.489V90.5431H197.573V91.3982ZM170.433 93.1767L170.891 93.9167L170.897 93.9139L170.902 93.9109L170.433 93.1767ZM165.331 97.8844L164.543 97.4465L164.54 97.4512L164.536 97.4561L165.331 97.8844ZM163.479 122.783V123.638H164.397V122.783H163.479ZM157.873 122.783H156.955V123.638H157.873V122.783ZM159.386 97.4137L160.229 97.7504L160.23 97.7484L160.232 97.746L159.386 97.4137ZM163.592 91.5552L164.24 92.1598L164.243 92.1567L164.247 92.1534L163.592 91.5552ZM169.816 87.5797L169.46 86.792L169.457 86.7927L169.454 86.7938L169.816 87.5797ZM203.181 86.1673H204.098V85.3123H203.181V86.1673ZM203.181 121.928H197.573V123.638H203.181V121.928ZM198.489 122.783V112.322H196.657V122.783H198.489ZM197.573 111.467L166.221 112.322L166.228 113.177H197.573V111.467ZM167.144 112.322L167.138 107.091H165.698L165.686 112.322H167.144ZM167.138 107.946H197.573V106.236H167.144L167.138 107.091V107.946ZM198.489 107.091V91.3982H196.657V107.091H198.489ZM197.573 90.5431H177.443V92.2532H197.573V90.5431ZM177.443 90.5431C174.739 90.5431 172.239 91.1757 169.964 92.4423L170.902 93.9109C172.888 92.8063 175.062 92.2532 177.443 92.2532V90.5431ZM169.974 92.4368C167.706 93.6611 165.893 95.3347 164.543 97.4465L166.117 98.3225C167.31 96.4588 168.897 94.9939 170.891 93.9167L169.974 92.4368ZM164.536 97.4561C163.218 99.5802 162.563 101.926 162.563 104.475H164.397C164.397 102.212 164.974 100.164 166.124 98.3128L164.536 97.4561ZM162.563 104.475V122.783H164.397V104.475H162.563ZM163.479 121.928H157.873V123.638H163.479V121.928ZM158.789 122.783V104.475H156.955V122.783H158.789ZM158.789 104.475C158.789 102.074 159.271 99.8359 160.229 97.7504L158.544 97.0769C157.483 99.3855 156.955 101.855 156.955 104.475H158.789ZM160.232 97.746C161.196 95.6135 162.531 93.7537 164.24 92.1598L162.944 90.9505C161.063 92.7044 159.596 94.7503 158.543 97.0814L160.232 97.746ZM164.247 92.1534C165.958 90.5244 167.931 89.2631 170.177 88.3657L169.454 86.7938C166.99 87.7794 164.815 89.1682 162.937 90.9568L164.247 92.1534ZM170.173 88.3675C172.449 87.4719 174.869 87.0225 177.443 87.0225V85.3123C174.634 85.3123 171.969 85.8043 169.46 86.792L170.173 88.3675ZM177.443 87.0225H203.181V85.3123H177.443V87.0225ZM202.264 86.1673V122.783H204.098V86.1673H202.264ZM269.119 122.783V123.638H271.385L269.755 122.169L269.119 122.783ZM261.548 122.783L260.916 123.403L261.181 123.638H261.548V122.783ZM249.772 112.322L250.405 111.702L250.14 111.467H249.772V112.322ZM232.557 112.322H231.641V113.177H232.557V112.322ZM232.557 107.143V106.288H231.641V107.143H232.557ZM259.361 106.097L259.827 106.834L259.834 106.829L259.842 106.824L259.361 106.097ZM262.389 103.22L263.18 103.653L263.182 103.649L263.185 103.644L262.389 103.22ZM229.416 91.3982V90.5431H228.5V91.3982H229.416ZM229.416 122.783V123.638H230.333V122.783H229.416ZM223.81 122.783H222.893V123.638H223.81V122.783ZM223.81 86.1673V85.3123H222.893V86.1673H223.81ZM262.165 87.9458L261.695 88.6802L261.701 88.683L261.706 88.6859L262.165 87.9458ZM267.211 92.6536L266.419 93.0819L266.42 93.0868L266.424 93.0916L267.211 92.6536ZM267.548 105.26L266.737 104.86L266.735 104.866L266.731 104.872L267.548 105.26ZM263.343 109.863L263.88 110.556L263.882 110.555L263.883 110.554L263.343 109.863ZM257.344 112.165L257.19 111.321L255.397 111.6L256.704 112.779L257.344 112.165ZM269.119 121.928H261.548V123.638H269.119V121.928ZM262.18 122.164L250.405 111.702L249.14 112.941L260.916 123.403L262.18 122.164ZM249.772 111.467H232.557V113.177H249.772V111.467ZM233.474 112.322V107.143H231.641V112.322H233.474ZM232.557 107.998H255.098V106.288H232.557V107.998ZM255.098 107.998C256.823 107.998 258.404 107.614 259.827 106.834L258.896 105.36C257.776 105.975 256.517 106.288 255.098 106.288V107.998ZM259.842 106.824C261.238 106.02 262.355 104.961 263.18 103.653L261.6 102.786C260.928 103.851 260.025 104.709 258.878 105.369L259.842 106.824ZM263.185 103.644C264.014 102.292 264.427 100.82 264.427 99.2446H262.594C262.594 100.528 262.261 101.707 261.593 102.796L263.185 103.644ZM264.427 99.2446C264.427 97.6376 264.016 96.1611 263.18 94.8356L261.6 95.7026C262.258 96.7483 262.594 97.9221 262.594 99.2446H264.427ZM263.18 94.8356C262.353 93.5245 261.231 92.4787 259.827 91.7074L258.896 93.1815C260.033 93.8051 260.93 94.6422 261.6 95.7026L263.18 94.8356ZM259.827 91.7074C258.404 90.9277 256.823 90.5431 255.098 90.5431V92.2532C256.517 92.2532 257.776 92.5663 258.896 93.1815L259.827 91.7074ZM255.098 90.5431H229.416V92.2532H255.098V90.5431ZM228.5 91.3982V122.783H230.333V91.3982H228.5ZM229.416 121.928H223.81V123.638H229.416V121.928ZM224.727 122.783V86.1673H222.893V122.783H224.727ZM223.81 87.0225H255.098V85.3123H223.81V87.0225ZM255.098 87.0225C257.521 87.0225 259.712 87.5767 261.695 88.6802L262.634 87.2114C260.356 85.9436 257.837 85.3123 255.098 85.3123V87.0225ZM261.706 88.6859C263.698 89.7617 265.265 91.2236 266.419 93.0819L268.005 92.2252C266.691 90.1082 264.893 88.4317 262.624 87.2059L261.706 88.6859ZM266.424 93.0916C267.607 94.9415 268.201 96.986 268.201 99.2446H270.035C270.035 96.6905 269.358 94.3412 267.998 92.2156L266.424 93.0916ZM268.201 99.2446C268.201 101.272 267.712 103.14 266.737 104.86L268.359 105.659C269.477 103.684 270.035 101.541 270.035 99.2446H268.201ZM266.731 104.872C265.787 106.6 264.48 108.031 262.801 109.172L263.883 110.554C265.794 109.254 267.291 107.616 268.366 105.648L266.731 104.872ZM262.805 109.17C261.168 110.275 259.302 110.993 257.19 111.321L257.493 113.008C259.87 112.639 262.004 111.823 263.88 110.556L262.805 109.17ZM256.704 112.779L268.48 123.398L269.755 122.169L257.98 111.55L256.704 112.779ZM329.317 117.605L330.104 118.045L330.106 118.041L330.109 118.038L329.317 117.605ZM282.124 122.783H281.262L280.329 123.638H281.856L282.124 122.783ZM286.862 117.552L287.773 116.697H287.788L286.883 117.552H286.862ZM323.597 116.036L324.247 116.64L324.251 116.635L324.258 116.63L323.597 116.036ZM323.597 108.66L322.938 109.254L322.945 109.26L322.95 109.265L323.597 108.66ZM291.074 105.678L290.602 106.412L290.607 106.414L290.611 106.416L291.074 105.678ZM287.038 101.912L286.246 102.345L286.249 102.349L286.252 102.352L287.038 101.912ZM287.038 91.3982L287.824 91.8381L287.826 91.8347L287.827 91.831L287.038 91.3982ZM291.074 87.5797L290.611 86.8422L290.607 86.8444L290.602 86.8465L291.074 87.5797ZM332.915 86.1673L335.598 85.3123H333.833H332.915V86.1673ZM328.028 91.3982V92.2532H328.15L329.065 91.3982H328.028ZM292.756 100.343L292.098 100.937L292.108 100.948L292.12 100.958L292.756 100.343ZM329.317 107.091L328.528 107.524L328.529 107.527L328.532 107.531L329.317 107.091ZM329.915 112.322C329.915 114.093 329.452 115.703 328.528 117.172L330.109 118.038C331.203 116.298 331.748 114.387 331.748 112.322H329.915ZM328.532 117.165C327.599 118.614 326.362 119.769 324.808 120.638L325.753 122.104C327.563 121.09 329.017 119.734 330.104 118.045L328.532 117.165ZM324.808 120.638C323.278 121.494 321.556 121.928 319.616 121.928V123.638C321.864 123.638 323.918 123.131 325.753 122.104L324.808 120.638ZM319.616 121.928H282.258L281.856 123.638H319.616V121.928ZM286.44 122.783L286.976 117.552H286.862H286.883L281.262 122.783H286.44ZM285.964 118.408H319.616V116.697H287.773L285.964 118.408ZM319.616 118.408C321.423 118.408 322.985 117.816 324.247 116.64L322.95 115.431C322.043 116.278 320.951 116.697 319.616 116.697V118.408ZM324.258 116.63C325.503 115.427 326.141 113.978 326.141 112.322H324.307C324.307 113.525 323.861 114.551 322.938 115.441L324.258 116.63ZM326.141 112.322C326.141 110.665 325.501 109.227 324.247 108.055L322.95 109.265C323.861 110.116 324.307 111.119 324.307 112.322H326.141ZM324.258 108.066C322.999 106.852 321.433 106.236 319.616 106.236V107.946C320.941 107.946 322.029 108.376 322.938 109.254L324.258 108.066ZM319.616 106.236H296.739V107.946H319.616V106.236ZM296.739 106.236C294.84 106.236 293.113 105.803 291.537 104.941L290.611 106.416C292.476 107.437 294.524 107.946 296.739 107.946V106.236ZM291.546 104.945C289.992 104.076 288.754 102.921 287.824 101.472L286.252 102.352C287.338 104.042 288.79 105.398 290.602 106.412L291.546 104.945ZM287.827 101.479C286.902 100.011 286.44 98.4 286.44 96.6291H284.606C284.606 98.6941 285.152 100.605 286.246 102.345L287.827 101.479ZM286.44 96.6291C286.44 94.8583 286.902 93.268 287.824 91.8381L286.252 90.9582C285.152 92.667 284.606 94.564 284.606 96.6291H286.44ZM287.827 91.831C288.76 90.3482 289.998 89.1796 291.546 88.3129L290.602 86.8465C288.786 87.8629 287.332 89.24 286.246 90.9654L287.827 91.831ZM291.537 88.3172C293.113 87.4551 294.84 87.0225 296.739 87.0225V85.3123C294.524 85.3123 292.476 85.8212 290.611 86.8422L291.537 88.3172ZM296.739 87.0225H332.915V85.3123H296.739V87.0225ZM331.999 86.1673L327.111 91.3982H329.065L335.598 85.3123L331.999 86.1673ZM328.028 90.5431H296.739V92.2532H328.028V90.5431ZM296.739 90.5431C294.953 90.5431 293.395 91.1625 292.108 92.3629L293.406 93.5722C294.362 92.68 295.458 92.2532 296.739 92.2532V90.5431ZM292.108 92.3629C290.852 93.5345 290.213 94.9724 290.213 96.6291H292.047C292.047 95.4262 292.492 94.4231 293.406 93.5722L292.108 92.3629ZM290.213 96.6291C290.213 98.285 290.852 99.7348 292.098 100.937L293.415 99.7486C292.494 98.8589 292.047 97.8327 292.047 96.6291H290.213ZM292.12 100.958C293.408 102.12 294.963 102.715 296.739 102.715V101.005C295.448 101.005 294.348 100.588 293.393 99.7282L292.12 100.958ZM296.739 102.715H319.616V101.005H296.739V102.715ZM319.616 102.715C321.556 102.715 323.278 103.149 324.808 104.006L325.753 102.539C323.918 101.512 321.864 101.005 319.616 101.005V102.715ZM324.808 104.006C326.357 104.872 327.594 106.041 328.528 107.524L330.109 106.658C329.022 104.933 327.569 103.555 325.753 102.539L324.808 104.006ZM328.532 107.531C329.452 108.961 329.915 110.551 329.915 112.322H331.748C331.748 110.257 331.203 108.36 330.104 106.651L328.532 107.531Z" fill="#1F3287"/>
<path d="M30.325 141.145V142.751H25.9056V156.268H23.7889V142.751H19.3464V141.145H30.325ZM42.2807 144.16C43.2422 144.16 44.1105 144.354 44.8858 144.746C45.6611 145.123 46.2659 145.692 46.7 146.461C47.1496 147.226 47.3746 148.16 47.3746 149.258V156.268H45.2812V149.542C45.2812 148.354 44.9634 147.451 44.3275 146.828C43.6919 146.193 42.8234 145.873 41.7225 145.873C40.606 145.873 39.7144 146.199 39.0476 146.85C38.3963 147.501 38.0708 148.448 38.0708 149.692V156.268H35.9541V140.211H38.0708V146.07C38.4893 145.462 39.0631 144.991 39.792 144.659C40.5362 144.326 41.3657 144.16 42.2807 144.16ZM65.4857 149.866C65.4857 150.243 65.4623 150.64 65.4159 151.06H55.2282C55.3057 152.232 55.7321 153.15 56.5074 153.816C57.2982 154.467 58.2519 154.791 59.3683 154.791C60.2831 154.791 61.0429 154.596 61.6477 154.205C62.2681 153.801 62.7023 153.266 62.9503 152.601H65.2297C64.8887 153.743 64.2063 154.676 63.1829 155.4C62.1595 156.108 60.888 156.463 59.3683 156.463C58.1589 156.463 57.0734 156.21 56.112 155.703C55.166 155.197 54.4218 154.481 53.8792 153.556C53.3364 152.615 53.065 151.529 53.065 150.3C53.065 149.071 53.3286 147.993 53.8558 147.068C54.383 146.141 55.1196 145.432 56.0655 144.942C57.0268 144.434 58.1278 144.182 59.3683 144.182C60.5779 144.182 61.6477 144.428 62.5782 144.92C63.5086 145.411 64.2218 146.091 64.718 146.96C65.2297 147.813 65.4857 148.781 65.4857 149.866ZM63.2992 149.454C63.2992 148.702 63.1208 148.059 62.7642 147.523C62.4075 146.972 61.9191 146.561 61.299 146.287C60.6941 145.997 60.0196 145.854 59.2753 145.854C58.2055 145.854 57.2905 146.171 56.5306 146.806C55.7863 147.443 55.3599 148.326 55.2514 149.454H63.2992ZM85.6683 156.419C84.5983 156.419 83.6371 156.246 82.7842 155.898C81.9469 155.537 81.2878 155.045 80.8071 154.423C80.3265 153.786 80.0783 153.056 80.0628 152.232H82.3189C82.3965 152.941 82.7066 153.54 83.2493 154.033C83.8076 154.51 84.6139 154.748 85.6683 154.748C86.6763 154.748 87.4671 154.516 88.0409 154.055C88.6301 153.576 88.9247 152.968 88.9247 152.232C88.9247 151.652 88.7542 151.184 88.413 150.82C88.0718 150.459 87.6454 150.185 87.1337 149.997C86.6219 149.808 85.932 149.606 85.0636 149.389C83.9937 149.129 83.1331 148.869 82.4818 148.608C81.846 148.347 81.2956 147.942 80.8304 147.394C80.3808 146.828 80.1558 146.077 80.1558 145.137C80.1558 144.312 80.3808 143.582 80.8304 142.945C81.2801 142.309 81.908 141.818 82.7144 141.469C83.5362 141.123 84.4743 140.949 85.5287 140.949C87.0484 140.949 88.2889 141.303 89.2503 142.012C90.2273 142.721 90.7777 143.661 90.9017 144.833H88.5758C88.4981 144.254 88.1726 143.747 87.5988 143.314C87.025 142.866 86.2653 142.641 85.3194 142.641C84.4355 142.641 83.7146 142.858 83.1563 143.292C82.598 143.711 82.3189 144.305 82.3189 145.071C82.3189 145.622 82.4818 146.07 82.8075 146.417C83.1486 146.764 83.5595 147.03 84.0402 147.219C84.5364 147.394 85.2264 147.596 86.1102 147.827C87.1802 148.102 88.0409 148.376 88.692 148.651C89.3433 148.913 89.9016 149.324 90.3667 149.887C90.8319 150.437 91.0646 151.189 91.0646 152.144C91.0646 152.883 90.8552 153.576 90.4365 154.227C90.0179 154.878 89.3976 155.406 88.5758 155.812C87.754 156.216 86.7847 156.419 85.6683 156.419ZM104.321 156.268L99.3197 151.016V156.268H97.2031V140.211H99.3197V149.649L104.227 144.376H107.181L101.18 150.3L107.205 156.268H104.321ZM113.29 142.447C112.887 142.447 112.546 142.315 112.267 142.056C111.988 141.796 111.848 141.476 111.848 141.101C111.848 140.726 111.988 140.406 112.267 140.146C112.546 139.885 112.887 139.755 113.29 139.755C113.678 139.755 114.004 139.885 114.267 140.146C114.547 140.406 114.686 140.726 114.686 141.101C114.686 141.476 114.547 141.796 114.267 142.056C114.004 142.315 113.678 142.447 113.29 142.447ZM114.314 144.376V156.268H112.197V144.376H114.314ZM123.062 140.211V156.268H120.945V140.211H123.062ZM131.809 140.211V156.268H129.693V140.211H131.809ZM156.829 141.145V142.751H149.783V147.849H155.504V149.454H149.783V156.268H147.666V141.145H156.829ZM163.502 142.447C163.1 142.447 162.759 142.315 162.478 142.056C162.201 141.796 162.061 141.476 162.061 141.101C162.061 140.726 162.201 140.406 162.478 140.146C162.759 139.885 163.1 139.755 163.502 139.755C163.889 139.755 164.215 139.885 164.479 140.146C164.76 140.406 164.898 140.726 164.898 141.101C164.898 141.476 164.76 141.796 164.479 142.056C164.215 142.315 163.889 142.447 163.502 142.447ZM164.526 144.376V156.268H162.411V144.376H164.526ZM173.274 146.307C173.645 145.629 174.173 145.101 174.855 144.724C175.552 144.348 176.398 144.16 177.392 144.16V146.199H176.832C174.461 146.199 173.274 147.4 173.274 149.802V156.268H171.158V144.376H173.274V146.307ZM187.37 156.463C186.393 156.463 185.519 156.31 184.742 156.008C183.967 155.688 183.355 155.255 182.906 154.706C182.455 154.141 182.206 153.496 182.161 152.773H184.347C184.409 153.368 184.703 153.851 185.231 154.227C185.773 154.604 186.479 154.791 187.347 154.791C188.153 154.791 188.79 154.626 189.255 154.293C189.72 153.96 189.953 153.54 189.953 153.034C189.953 152.514 189.704 152.13 189.208 151.884C188.712 151.625 187.944 151.371 186.906 151.125C185.96 150.894 185.184 150.662 184.579 150.431C183.99 150.185 183.478 149.83 183.044 149.368C182.626 148.891 182.416 148.268 182.416 147.501C182.416 146.894 182.61 146.337 182.998 145.832C183.386 145.325 183.935 144.927 184.649 144.638C185.363 144.332 186.176 144.182 187.091 144.182C188.502 144.182 189.642 144.516 190.511 145.181C191.379 145.846 191.844 146.756 191.907 147.913H189.79C189.743 147.292 189.472 146.792 188.975 146.417C188.495 146.04 187.844 145.854 187.021 145.854C186.261 145.854 185.657 146.004 185.208 146.307C184.759 146.612 184.533 147.009 184.533 147.501C184.533 147.892 184.665 148.218 184.929 148.478C185.208 148.724 185.548 148.927 185.953 149.085C186.37 149.23 186.945 149.397 187.672 149.584C188.588 149.816 189.333 150.048 189.906 150.279C190.48 150.495 190.969 150.828 191.371 151.277C191.79 151.725 192.007 152.31 192.022 153.034C192.022 153.685 191.828 154.271 191.441 154.791C191.053 155.313 190.503 155.724 189.79 156.028C189.092 156.317 188.285 156.463 187.37 156.463ZM200.616 146.004V153.012C200.616 153.592 200.748 154.003 201.011 154.249C201.275 154.481 201.732 154.596 202.385 154.596H203.942V156.268H202.035C200.856 156.268 199.973 156.014 199.383 155.507C198.795 155.001 198.499 154.169 198.499 153.012V146.004H196.847V144.376H198.499V141.383H200.616V144.376H203.942V146.004H200.616ZM217.964 148.695C217.964 147.219 218.322 145.895 219.035 144.724C219.748 143.538 220.717 142.612 221.941 141.946C223.182 141.281 224.554 140.949 226.058 140.949C227.827 140.949 229.369 141.347 230.687 142.142C232.005 142.938 232.967 144.067 233.573 145.527H231.035C230.586 144.616 229.935 143.914 229.081 143.421C228.245 142.931 227.237 142.685 226.058 142.685C224.927 142.685 223.91 142.931 223.012 143.421C222.113 143.914 221.408 144.616 220.895 145.527C220.384 146.423 220.127 147.479 220.127 148.695C220.127 149.895 220.384 150.952 220.895 151.862C221.408 152.759 222.113 153.454 223.012 153.945C223.91 154.437 224.927 154.684 226.058 154.684C227.237 154.684 228.245 154.445 229.081 153.967C229.935 153.475 230.586 152.773 231.035 151.862H233.573C232.967 153.309 232.005 154.43 230.687 155.225C229.369 156.008 227.827 156.397 226.058 156.397C224.554 156.397 223.182 156.071 221.941 155.42C220.717 154.755 219.748 153.838 219.035 152.665C218.322 151.493 217.964 150.171 217.964 148.695ZM245.305 156.463C244.111 156.463 243.026 156.21 242.049 155.703C241.087 155.197 240.327 154.481 239.77 153.556C239.227 152.615 238.955 151.529 238.955 150.3C238.955 149.085 239.234 148.015 239.792 147.09C240.366 146.149 241.143 145.432 242.12 144.942C243.097 144.434 244.188 144.182 245.399 144.182C246.608 144.182 247.701 144.434 248.678 144.942C249.655 145.432 250.422 146.141 250.98 147.068C251.554 147.993 251.841 149.071 251.841 150.3C251.841 151.529 251.547 152.615 250.958 153.556C250.383 154.481 249.6 155.197 248.607 155.703C247.617 156.21 246.514 156.463 245.305 156.463ZM245.305 154.727C246.065 154.727 246.778 154.56 247.444 154.227C248.111 153.895 248.646 153.396 249.051 152.731C249.468 152.066 249.678 151.255 249.678 150.3C249.678 149.346 249.477 148.535 249.072 147.87C248.67 147.204 248.142 146.713 247.491 146.395C246.84 146.062 246.135 145.895 245.375 145.895C244.599 145.895 243.886 146.062 243.235 146.395C242.599 146.713 242.088 147.204 241.699 147.87C241.312 148.535 241.119 149.346 241.119 150.3C241.119 151.269 241.304 152.086 241.677 152.751C242.064 153.416 242.577 153.917 243.211 154.249C243.847 154.568 244.545 154.727 245.305 154.727ZM272.976 144.16C273.968 144.16 274.852 144.354 275.628 144.746C276.403 145.123 277.015 145.692 277.464 146.461C277.915 147.226 278.138 148.16 278.138 149.258V156.268H276.046V149.542C276.046 148.354 275.727 147.451 275.093 146.828C274.472 146.193 273.627 145.873 272.557 145.873C271.456 145.873 270.58 146.207 269.929 146.872C269.278 147.523 268.952 148.47 268.952 149.714V156.268H266.859V149.542C266.859 148.354 266.54 147.451 265.905 146.828C265.284 146.193 264.44 145.873 263.369 145.873C262.269 145.873 261.393 146.207 260.74 146.872C260.09 147.523 259.763 148.47 259.763 149.714V156.268H257.648V144.376H259.763V146.091C260.184 145.468 260.74 144.991 261.438 144.659C262.151 144.326 262.935 144.16 263.789 144.16C264.859 144.16 265.804 144.384 266.626 144.833C267.447 145.281 268.06 145.939 268.464 146.806C268.819 145.968 269.409 145.317 270.231 144.855C271.054 144.392 271.967 144.16 272.976 144.16ZM286.752 146.568C287.171 145.888 287.791 145.325 288.612 144.876C289.451 144.414 290.419 144.182 291.519 144.182C292.651 144.182 293.675 144.434 294.59 144.942C295.52 145.448 296.25 146.163 296.776 147.09C297.304 148.001 297.568 149.063 297.568 150.279C297.568 151.479 297.304 152.549 296.776 153.49C296.25 154.43 295.52 155.161 294.59 155.681C293.675 156.202 292.651 156.463 291.519 156.463C290.435 156.463 289.474 156.238 288.635 155.79C287.814 155.327 287.186 154.755 286.752 154.075V161.908H284.635V144.376H286.752V146.568ZM295.405 150.279C295.405 149.382 295.21 148.601 294.822 147.935C294.435 147.27 293.909 146.764 293.241 146.417C292.59 146.07 291.869 145.895 291.078 145.895C290.302 145.895 289.582 146.077 288.914 146.439C288.264 146.786 287.737 147.299 287.334 147.979C286.945 148.644 286.752 149.418 286.752 150.3C286.752 151.197 286.945 151.986 287.334 152.665C287.737 153.331 288.264 153.844 288.914 154.205C289.582 154.552 290.302 154.727 291.078 154.727C291.869 154.727 292.59 154.552 293.241 154.205C293.909 153.844 294.435 153.331 294.822 152.665C295.21 151.986 295.405 151.189 295.405 150.279ZM302.587 150.279C302.587 149.063 302.849 148.001 303.377 147.09C303.904 146.163 304.625 145.448 305.54 144.942C306.47 144.434 307.502 144.182 308.634 144.182C309.749 144.182 310.719 144.406 311.542 144.855C312.362 145.303 312.976 145.866 313.378 146.546V144.376H315.519V156.268H313.378V154.055C312.961 154.748 312.333 155.327 311.495 155.79C310.674 156.238 309.712 156.463 308.611 156.463C307.479 156.463 306.455 156.202 305.54 155.681C304.625 155.161 303.904 154.43 303.377 153.49C302.849 152.549 302.587 151.479 302.587 150.279ZM313.378 150.3C313.378 149.404 313.185 148.622 312.798 147.957C312.409 147.292 311.881 146.786 311.215 146.439C310.565 146.077 309.843 145.895 309.053 145.895C308.262 145.895 307.541 146.07 306.889 146.417C306.238 146.764 305.718 147.27 305.331 147.935C304.944 148.601 304.75 149.382 304.75 150.279C304.75 151.189 304.944 151.986 305.331 152.665C305.718 153.331 306.238 153.844 306.889 154.205C307.541 154.552 308.262 154.727 309.053 154.727C309.843 154.727 310.565 154.552 311.215 154.205C311.881 153.844 312.409 153.331 312.798 152.665C313.185 151.986 313.378 151.197 313.378 150.3ZM328.329 144.16C329.881 144.16 331.137 144.601 332.097 145.484C333.059 146.351 333.54 147.611 333.54 149.258V156.268H331.446V149.542C331.446 148.354 331.13 147.451 330.493 146.828C329.857 146.193 328.989 145.873 327.888 145.873C326.771 145.873 325.88 146.199 325.213 146.85C324.562 147.501 324.236 148.448 324.236 149.692V156.268H322.118V144.376H324.236V146.07C324.656 145.462 325.219 144.991 325.934 144.659C326.662 144.326 327.461 144.16 328.329 144.16ZM351 144.376L343.324 161.864H341.137L343.65 156.136L338.51 144.376H340.858L344.859 154.011L348.812 144.376H351Z" fill="#1F3287"/>
<path d="M89.5787 56.9478L39.4702 87.0474L60.2048 80.2002L66.6206 87.0474C72.3712 74.6891 84.3213 61.831 89.5787 56.9478Z" fill="url(#paint0_linear_4020_6490)"/>
<path d="M346.118 123.469C348.818 123.469 351.007 121.428 351.007 118.909C351.007 116.391 348.818 114.349 346.118 114.349C343.419 114.349 341.23 116.391 341.23 118.909C341.23 121.428 343.419 123.469 346.118 123.469Z" fill="url(#paint1_linear_4020_6490)"/>
</g>
<defs>
<linearGradient id="paint0_linear_4020_6490" x1="89.458" y1="57.1178" x2="41.4495" y2="90.2566" gradientUnits="userSpaceOnUse">
<stop stop-color="#22D077"/>
<stop offset="1" stop-color="#14F1FC"/>
</linearGradient>
<linearGradient id="paint1_linear_4020_6490" x1="346.118" y1="114.349" x2="346.118" y2="123.469" gradientUnits="userSpaceOnUse">
<stop stop-color="#22D077"/>
<stop offset="1" stop-color="#14F1FC"/>
</linearGradient>
</defs>
</svg>
