<svg width="144" height="62" viewBox="0 0 144 62" fill="none" xmlns="http://www.w3.org/2000/svg">
<mask id="mask0_4012_87" style="mask-type:luminance" maskUnits="userSpaceOnUse" x="0" y="0" width="144" height="62">
<path d="M144 0H0V61.8465H144V0Z" fill="white"/>
</mask>
<g mask="url(#mask0_4012_87)">
<path d="M0.75293 7.51838L7.84764 46.0941L8.62479 17.1355M0.75293 7.51838L12.7363 1.69238M0.75293 7.51838L8.62479 17.1355M8.62479 17.1355L19.3797 20.5198L31.7766 18.7099M8.62479 17.1355L15.7697 8.6322M12.7363 1.69238L26.9507 2.1636L39.7613 8.6322M12.7363 1.69238L15.7697 8.6322M31.7766 18.7099L44.349 17.1355L39.7613 8.6322M31.7766 18.7099L29.8838 12.5519M15.7697 8.6322L29.8838 12.5519M39.7613 8.6322L29.8838 12.5519" stroke="#BDD5EA" stroke-width="0.707521"/>
<path fill-rule="evenodd" clip-rule="evenodd" d="M7.71997 46.1161L19.3579 20.6969L32.0125 18.8496L44.641 17.272L44.6475 23.4333L31.7743 36.0063H27.55L30.6086 46.1161H26.9484L19.3272 36.8631L11.5055 46.1161H7.71997ZM16.1927 32.709L36.75 21.3988C34.5931 23.2337 29.6906 28.0653 27.3314 32.709L24.6992 30.1361L16.1927 32.709Z" fill="#1F3287"/>
<path d="M15.7954 2.3561C15.7954 3.65734 14.5607 4.71218 13.0377 4.71218C11.5147 4.71218 10.28 3.65734 10.28 2.3561C10.28 1.05486 11.5147 0 13.0377 0C14.5607 0 15.7954 1.05486 15.7954 2.3561Z" fill="#00A5CF"/>
<path d="M17.248 8.91117C17.248 9.62092 16.5746 10.1963 15.7439 10.1963C14.9131 10.1963 14.2397 9.62092 14.2397 8.91117C14.2397 8.20137 14.9131 7.62598 15.7439 7.62598C16.5746 7.62598 17.248 8.20137 17.248 8.91117Z" fill="#00A5CF"/>
<path d="M30.9863 12.4235C30.9863 13.015 30.4251 13.4945 29.7328 13.4945C29.0406 13.4945 28.4794 13.015 28.4794 12.4235C28.4794 11.832 29.0406 11.3525 29.7328 11.3525C30.4251 11.3525 30.9863 11.832 30.9863 12.4235Z" fill="#00A5CF"/>
<path d="M2.50696 7.75406C2.50696 8.34553 1.94576 8.82501 1.25349 8.82501C0.561202 8.82501 0 8.34553 0 7.75406C0 7.16259 0.561202 6.68311 1.25349 6.68311C1.94576 6.68311 2.50696 7.16259 2.50696 7.75406Z" fill="#00A5CF"/>
<path d="M28.1295 2.22818C28.1295 2.81965 27.5683 3.29914 26.876 3.29914C26.1837 3.29914 25.6226 2.81965 25.6226 2.22818C25.6226 1.63671 26.1837 1.15723 26.876 1.15723C27.5683 1.15723 28.1295 1.63671 28.1295 2.22818Z" fill="#00A5CF"/>
<path d="M41.0644 8.86799C41.0644 9.69603 40.2787 10.3673 39.3095 10.3673C38.3403 10.3673 37.5546 9.69603 37.5546 8.86799C37.5546 8.03995 38.3403 7.36865 39.3095 7.36865C40.2787 7.36865 41.0644 8.03995 41.0644 8.86799Z" fill="#00A5CF"/>
<path d="M11.0809 16.7504C11.0809 17.8151 10.0707 18.6782 8.82462 18.6782C7.57857 18.6782 6.56836 17.8151 6.56836 16.7504C6.56836 15.6858 7.57857 14.8228 8.82462 14.8228C10.0707 14.8228 11.0809 15.6858 11.0809 16.7504Z" fill="#00A5CF"/>
<path d="M57.5989 46.1372H40.9429V32.3784H59.743L57.5989 34.344H43.2434V44.1716H57.5989V46.1372ZM55.6435 40.2406H44.3937V38.2751H55.6435V40.2406ZM83.3567 46.1372H81.0561V42.2061H68.5695V40.2406H81.0561V34.344H72.7971C71.7539 34.344 70.7958 34.5667 69.9216 35.0123C69.0474 35.4447 68.3495 36.0343 67.8285 36.7812C67.3223 37.5281 67.0688 38.3536 67.0688 39.2578V46.1372H64.7688V39.2578C64.7688 38.3143 64.9752 37.4299 65.3896 36.6043C65.8034 35.7657 66.3789 35.0319 67.1153 34.4029C67.8512 33.7608 68.7022 33.2629 69.6688 32.9091C70.6501 32.5553 71.6933 32.3784 72.7971 32.3784H83.3567V46.1372ZM110.408 46.1372H107.302L102.471 42.2061H95.4085V40.2603H104.656C105.301 40.2603 105.884 40.1292 106.405 39.8671C106.927 39.592 107.34 39.2316 107.647 38.7861C107.954 38.3275 108.107 37.8295 108.107 37.2923C108.107 36.742 107.954 36.244 107.647 35.7984C107.34 35.353 106.927 34.9991 106.405 34.7371C105.884 34.475 105.301 34.344 104.656 34.344H94.1199V46.1372H91.8198V32.3784H104.656C105.715 32.3784 106.681 32.6012 107.556 33.0467C108.429 33.4792 109.12 34.0688 109.625 34.8157C110.147 35.5626 110.408 36.3881 110.408 37.2923C110.408 38.1047 110.193 38.8581 109.763 39.5526C109.35 40.2471 108.774 40.8237 108.038 41.2823C107.317 41.7279 106.497 42.0161 105.577 42.1471L110.408 46.1372ZM135.726 42.2061C135.726 42.9268 135.519 43.5885 135.105 44.1913C134.691 44.7809 134.139 45.2527 133.448 45.6065C132.758 45.9603 131.984 46.1372 131.125 46.1372H117.138L117.698 44.1716H131.125C131.769 44.1716 132.314 43.9816 132.758 43.6016C133.203 43.2086 133.426 42.7434 133.426 42.2061C133.426 41.6688 133.203 41.2102 132.758 40.8302C132.314 40.4371 131.769 40.2406 131.125 40.2406H121.74C120.895 40.2406 120.121 40.0637 119.415 39.7099C118.725 39.3561 118.173 38.8843 117.759 38.2947C117.345 37.6919 117.138 37.0302 117.138 36.3095C117.138 35.5888 117.345 34.9336 117.759 34.344C118.173 33.7412 118.725 33.2629 119.415 32.9091C120.121 32.5553 120.895 32.3784 121.74 32.3784H136.632L134.576 34.344H121.74C121.11 34.344 120.566 34.5405 120.106 34.9336C119.661 35.3136 119.438 35.7722 119.438 36.3095C119.438 36.8467 119.661 37.3119 120.106 37.705C120.566 38.085 121.11 38.2751 121.74 38.2751H131.125C131.984 38.2751 132.758 38.4519 133.448 38.8057C134.139 39.1595 134.691 39.6378 135.105 40.2406C135.519 40.8302 135.726 41.4854 135.726 42.2061Z" fill="#1F3287"/>
<path d="M57.5983 46.1367V46.458H57.7236L58.1063 46.1367H57.5983ZM40.9426 46.1367H40.5665V46.458H40.9426V46.1367ZM40.9426 32.3779V32.0566H40.5665V32.3779H40.9426ZM59.6041 32.3779L60.6546 32.0566H59.98H59.6041V32.3779ZM57.5983 34.3435V34.6648L57.9748 34.3435H57.5983ZM43.2431 34.3435V34.0222H42.867V34.3435H43.2431ZM43.2431 44.1711H42.867V44.4924H43.2431V44.1711ZM55.643 40.2401V40.5614H55.6178L55.643 40.2401ZM44.3934 40.2401H44.0173V40.5614H44.3934V40.2401ZM44.3934 38.2746V37.9533H44.0173V38.2746H44.3934ZM57.147 38.2746L58.6659 37.9533H57.147V38.2746ZM57.5983 45.8154H40.9426V46.458H57.5983V45.8154ZM41.3186 46.1367V32.3779H40.5665V46.1367H41.3186ZM40.9426 32.6993H59.6041V32.0566H40.9426V32.6993ZM59.2282 32.3779L57.2224 34.3435H57.9748L60.6546 32.0566L59.2282 32.3779ZM57.5983 34.0222H43.2431V34.6648H57.5983V34.0222ZM42.867 34.3435V44.1711H43.6191V34.3435H42.867ZM43.2431 44.4924H57.5983L57.5116 45.9654L60.7765 43.8499H59.103H43.2431V44.4924ZM58.9652 44.4924L57.2224 46.1367H58.1063L60.7765 43.8499L58.9652 44.4924ZM55.643 39.9188H44.3934V40.5614H55.643V39.9188ZM44.7693 40.2401V38.2746H44.0173V40.2401H44.7693ZM44.3934 38.5958H55.643L57.147 38.2746V37.9533H44.3934V38.5958ZM55.2666 38.2746V40.2401L55.6178 40.5614L58.6659 37.9533L55.2666 38.2746ZM83.3562 46.1367V46.458H83.7326V46.1367H83.3562ZM81.0556 46.1367H80.6797V46.458H81.0556V46.1367ZM81.0556 42.2057H81.4315V41.8844H81.0556V42.2057ZM68.1959 42.2057H67.9737V42.5269H68.1959V42.2057ZM68.5695 40.2401L68.5718 39.9188H67.9788V40.2401H68.5695ZM81.0556 40.2401V40.5614H81.4315V40.2401H81.0556ZM81.0556 34.3435H81.4315V34.0222H81.0556V34.3435ZM69.9211 35.0118L70.1093 35.2898L70.1116 35.2888L70.1138 35.2877L69.9211 35.0118ZM67.828 36.7807L67.5048 36.6162L67.5037 36.618L67.502 36.6198L67.828 36.7807ZM67.0683 46.1367V46.458H67.4447V46.1367H67.0683ZM64.7683 46.1367H64.3918V46.458H64.7683V46.1367ZM65.3891 36.6039L65.7349 36.7304L65.7355 36.7296L65.736 36.7287L65.3891 36.6039ZM67.1148 34.4025L67.3807 34.6296L67.3818 34.6285L67.3835 34.6273L67.1148 34.4025ZM69.6682 32.9087L69.522 32.6127L69.5208 32.6129L69.5197 32.6133L69.6682 32.9087ZM83.3562 32.3779H83.7326V32.0566H83.3562V32.3779ZM83.3562 45.8154H81.0556V46.458H83.3562V45.8154ZM81.4315 46.1367V42.2057H80.6797V46.1367H81.4315ZM81.0556 41.8844L68.1931 42.2057L68.1959 42.5269H81.0556V41.8844ZM68.5718 42.2057L68.5695 40.2401H67.9788L67.9737 42.2057H68.5718ZM68.5695 40.5614H81.0556V39.9188H68.5718L68.5695 40.2401V40.5614ZM81.4315 40.2401V34.3435H80.6797V40.2401H81.4315ZM81.0556 34.0222H72.7971V34.6648H81.0556V34.0222ZM72.7971 34.0222C71.6876 34.0222 70.6621 34.2599 69.7289 34.7358L70.1138 35.2877C70.9285 34.8726 71.8203 34.6648 72.7971 34.6648V34.0222ZM69.7329 34.7337C68.8025 35.1938 68.0587 35.8227 67.5048 36.6162L68.1506 36.9453C68.6398 36.245 69.2912 35.6946 70.1093 35.2898L69.7329 34.7337ZM67.502 36.6198C66.9612 37.4179 66.6924 38.2995 66.6924 39.2573H67.4447C67.4447 38.4069 67.6817 37.6373 68.1534 36.9417L67.502 36.6198ZM66.6924 39.2573V46.1367H67.4447V39.2573H66.6924ZM67.0683 45.8154H64.7683V46.458H67.0683V45.8154ZM65.1441 46.1367V39.2573H64.3918V46.1367H65.1441ZM65.1441 39.2573C65.1441 38.3551 65.342 37.514 65.7349 36.7304L65.0438 36.4773C64.6084 37.3448 64.3918 38.2726 64.3918 39.2573H65.1441ZM65.736 36.7287C66.1317 35.9274 66.6794 35.2286 67.3807 34.6296L66.8489 34.1752C66.0773 34.8343 65.4752 35.603 65.0432 36.479L65.736 36.7287ZM67.3835 34.6273C68.0854 34.0152 68.895 33.5412 69.8162 33.204L69.5197 32.6133C68.5089 32.9837 67.6165 33.5056 66.8461 34.1776L67.3835 34.6273ZM69.8145 33.2047C70.7482 32.8682 71.7409 32.6993 72.7971 32.6993V32.0566C71.6446 32.0566 70.5515 32.2415 69.522 32.6127L69.8145 33.2047ZM72.7971 32.6993H83.3562V32.0566H72.7971V32.6993ZM82.9803 32.3779V46.1367H83.7326V32.3779H82.9803ZM110.408 46.1367V46.458H111.338L110.669 45.9057L110.408 46.1367ZM107.302 46.1367L107.042 46.3693L107.151 46.458H107.302V46.1367ZM102.471 42.2057L102.73 41.973L102.622 41.8844H102.471V42.2057ZM95.408 42.2057H95.0321V42.5269H95.408V42.2057ZM95.408 40.2598V39.9384H95.0321V40.2598H95.408ZM106.405 39.8666L106.596 40.1436L106.599 40.1418L106.602 40.1399L106.405 39.8666ZM107.647 38.7856L107.971 38.9485L107.972 38.9468L107.973 38.945L107.647 38.7856ZM94.1193 34.3435V34.0222H93.7435V34.3435H94.1193ZM94.1193 46.1367V46.458H94.4958V46.1367H94.1193ZM91.8193 46.1367H91.4434V46.458H91.8193V46.1367ZM91.8193 32.3779V32.0566H91.4434V32.3779H91.8193ZM107.555 33.0462L107.362 33.3222L107.364 33.3232L107.367 33.3243L107.555 33.0462ZM109.625 34.8152L109.3 34.9762L109.301 34.978L109.302 34.9798L109.625 34.8152ZM109.763 39.5521L109.43 39.402L109.43 39.4042L109.428 39.4063L109.763 39.5521ZM108.038 41.2818L108.259 41.5421L108.259 41.5418L108.26 41.5415L108.038 41.2818ZM105.577 42.1466L105.514 41.8297L104.778 41.9345L105.314 42.3776L105.577 42.1466ZM110.408 45.8154H107.302V46.458H110.408V45.8154ZM107.561 45.904L102.73 41.973L102.211 42.4383L107.042 46.3693L107.561 45.904ZM102.471 41.8844H95.408V42.5269H102.471V41.8844ZM95.7844 42.2057V40.2598H95.0321V42.2057H95.7844ZM95.408 40.5811H104.656V39.9384H95.408V40.5811ZM104.656 40.5811C105.363 40.5811 106.012 40.4365 106.596 40.1436L106.214 39.5897C105.754 39.8208 105.238 39.9384 104.656 39.9384V40.5811ZM106.602 40.1399C107.175 39.8377 107.633 39.4397 107.971 38.9485L107.323 38.6227C107.048 39.0226 106.677 39.3452 106.206 39.5933L106.602 40.1399ZM107.973 38.945C108.314 38.437 108.483 37.884 108.483 37.2918H107.731C107.731 37.7741 107.594 38.217 107.32 38.6262L107.973 38.945ZM108.483 37.2918C108.483 36.688 108.314 36.1332 107.971 35.6351L107.323 35.9609C107.593 36.3538 107.731 36.7949 107.731 37.2918H108.483ZM107.971 35.6351C107.632 35.1424 107.172 34.7495 106.596 34.4597L106.214 35.0136C106.68 35.2479 107.048 35.5624 107.323 35.9609L107.971 35.6351ZM106.596 34.4597C106.012 34.1667 105.363 34.0222 104.656 34.0222V34.6648C105.238 34.6648 105.754 34.7824 106.214 35.0136L106.596 34.4597ZM104.656 34.0222H94.1193V34.6648H104.656V34.0222ZM93.7435 34.3435V46.1367H94.4958V34.3435H93.7435ZM94.1193 45.8154H91.8193V46.458H94.1193V45.8154ZM92.1957 46.1367V32.3779H91.4434V46.1367H92.1957ZM91.8193 32.6993H104.656V32.0566H91.8193V32.6993ZM104.656 32.6993C105.65 32.6993 106.549 32.9075 107.362 33.3222L107.747 32.7703C106.813 32.2939 105.779 32.0566 104.656 32.0566V32.6993ZM107.367 33.3243C108.184 33.7286 108.827 34.2779 109.3 34.9762L109.951 34.6542C109.412 33.8588 108.674 33.2288 107.743 32.7682L107.367 33.3243ZM109.302 34.9798C109.788 35.6749 110.031 36.4431 110.031 37.2918H110.784C110.784 36.3321 110.506 35.4493 109.948 34.6506L109.302 34.9798ZM110.031 37.2918C110.031 38.0537 109.831 38.7554 109.43 39.402L110.096 39.7022C110.555 38.9599 110.784 38.1546 110.784 37.2918H110.031ZM109.428 39.4063C109.041 40.0559 108.505 40.5934 107.816 41.0222L108.26 41.5415C109.044 41.053 109.658 40.4374 110.099 39.698L109.428 39.4063ZM107.817 41.0215C107.146 41.4365 106.38 41.7065 105.514 41.8297L105.638 42.4636C106.613 42.3248 107.489 42.0182 108.259 41.5421L107.817 41.0215ZM105.314 42.3776L110.146 46.3677L110.669 45.9057L105.838 41.9157L105.314 42.3776ZM135.104 44.1908L135.427 44.3561L135.428 44.3548L135.429 44.3535L135.104 44.1908ZM115.743 46.1367H115.389L115.007 46.458H115.633L115.743 46.1367ZM117.687 44.1711L118.061 43.8499H118.067L117.696 44.1711H117.687ZM132.758 43.6011L133.024 43.8284L133.026 43.8264L133.029 43.8245L132.758 43.6011ZM132.758 40.8297L132.487 41.053L132.49 41.055L132.492 41.057L132.758 40.8297ZM119.415 39.7094L119.221 39.9849L119.224 39.9857L119.225 39.9865L119.415 39.7094ZM117.759 38.2942L117.434 38.4568L117.435 38.4582L117.437 38.4595L117.759 38.2942ZM117.759 34.3435L118.082 34.5088L118.082 34.5075L118.083 34.5061L117.759 34.3435ZM119.415 32.9087L119.225 32.6315L119.224 32.6324L119.221 32.6331L119.415 32.9087ZM136.581 32.3779L137.681 32.0566H136.957H136.581V32.3779ZM134.575 34.3435V34.6648H134.626L135.001 34.3435H134.575ZM120.105 37.7045L119.835 37.9278L119.839 37.9318L119.844 37.9356L120.105 37.7045ZM135.104 40.2401L134.781 40.4027L134.781 40.4041L134.782 40.4054L135.104 40.2401ZM135.35 42.2057C135.35 42.871 135.16 43.4763 134.781 44.0282L135.429 44.3535C135.878 43.6998 136.102 42.9816 136.102 42.2057H135.35ZM134.782 44.0255C134.4 44.57 133.892 45.0038 133.254 45.3305L133.642 45.8815C134.385 45.5006 134.981 44.991 135.427 44.3561L134.782 44.0255ZM133.254 45.3305C132.627 45.6523 131.92 45.8154 131.124 45.8154V46.458C132.047 46.458 132.889 46.2672 133.642 45.8815L133.254 45.3305ZM131.124 45.8154H115.798L115.633 46.458H131.124V45.8154ZM117.514 46.1367L117.734 44.1711H117.687H117.696L115.389 46.1367H117.514ZM117.319 44.4924H131.124V43.8499H118.061L117.319 44.4924ZM131.124 44.4924C131.866 44.4924 132.507 44.2702 133.024 43.8284L132.492 43.374C132.12 43.6921 131.672 43.8499 131.124 43.8499V44.4924ZM133.029 43.8245C133.54 43.3726 133.802 42.8278 133.802 42.2057H133.049C133.049 42.6579 132.866 43.0435 132.487 43.3779L133.029 43.8245ZM133.802 42.2057C133.802 41.5831 133.539 41.0428 133.024 40.6026L132.492 41.057C132.866 41.3767 133.049 41.7536 133.049 42.2057H133.802ZM133.029 40.6064C132.512 40.1503 131.87 39.9188 131.124 39.9188V40.5614C131.668 40.5614 132.114 40.723 132.487 41.053L133.029 40.6064ZM131.124 39.9188H121.739V40.5614H131.124V39.9188ZM121.739 39.9188C120.96 39.9188 120.251 39.7563 119.605 39.4323L119.225 39.9865C119.99 40.3702 120.83 40.5614 121.739 40.5614V39.9188ZM119.608 39.4339C118.971 39.1073 118.463 38.6733 118.082 38.1289L117.437 38.4595C117.882 39.0944 118.478 39.6039 119.221 39.9849L119.608 39.4339ZM118.083 38.1316C117.704 37.5797 117.514 36.9745 117.514 36.309H116.761C116.761 37.085 116.985 37.8032 117.434 38.4568L118.083 38.1316ZM117.514 36.309C117.514 35.6436 117.704 35.0461 118.082 34.5088L117.437 34.1782C116.985 34.8202 116.761 35.533 116.761 36.309H117.514ZM118.083 34.5061C118.466 33.9489 118.974 33.5098 119.608 33.1842L119.221 32.6331C118.476 33.0151 117.88 33.5325 117.434 34.1809L118.083 34.5061ZM119.605 33.1858C120.251 32.8618 120.96 32.6993 121.739 32.6993V32.0566C120.83 32.0566 119.99 32.2479 119.225 32.6315L119.605 33.1858ZM121.739 32.6993H136.581V32.0566H121.739V32.6993ZM136.205 32.3779L134.2 34.3435H135.001L137.681 32.0566L136.205 32.3779ZM134.575 34.0222H121.739V34.6648H134.575V34.0222ZM121.739 34.0222C121.007 34.0222 120.367 34.2549 119.839 34.706L120.372 35.1604C120.764 34.8251 121.213 34.6648 121.739 34.6648V34.0222ZM119.839 34.706C119.324 35.1462 119.062 35.6865 119.062 36.309H119.814C119.814 35.857 119.997 35.4801 120.372 35.1604L119.839 34.706ZM119.062 36.309C119.062 36.9312 119.324 37.476 119.835 37.9278L120.376 37.4812C119.997 37.1469 119.814 36.7613 119.814 36.309H119.062ZM119.844 37.9356C120.373 38.3723 121.01 38.5958 121.739 38.5958V37.9533C121.209 37.9533 120.758 37.7968 120.366 37.4735L119.844 37.9356ZM121.739 38.5958H131.124V37.9533H121.739V38.5958ZM131.124 38.5958C131.92 38.5958 132.627 38.7589 133.254 39.0808L133.642 38.5297C132.889 38.144 132.047 37.9533 131.124 37.9533V38.5958ZM133.254 39.0808C133.89 39.4064 134.397 39.8455 134.781 40.4027L135.429 40.0774C134.984 39.4291 134.387 38.9117 133.642 38.5297L133.254 39.0808ZM134.782 40.4054C135.16 40.9427 135.35 41.5402 135.35 42.2057H136.102C136.102 41.4296 135.878 40.7168 135.427 40.0748L134.782 40.4054Z" fill="#1F3287"/>
<path d="M12.441 53.0363V53.6398H10.6279V58.719H9.75958V53.6398H7.93701V53.0363H12.441ZM17.3459 54.1693C17.7404 54.1693 18.0966 54.2424 18.4147 54.3897C18.7328 54.5311 18.9809 54.7452 19.159 55.0339C19.3435 55.3216 19.4358 55.6723 19.4358 56.085V58.719H18.5769V56.1915C18.5769 55.7454 18.4465 55.4059 18.1857 55.1719C17.9249 54.9331 17.5686 54.813 17.117 54.813C16.6589 54.813 16.2931 54.9355 16.0196 55.1802C15.7524 55.4248 15.6188 55.7808 15.6188 56.2482V58.719H14.7504V52.6856H15.6188V54.8871C15.7905 54.6585 16.0259 54.4817 16.325 54.3567C16.6302 54.2318 16.9706 54.1693 17.3459 54.1693ZM26.8659 56.3136C26.8659 56.455 26.8563 56.6042 26.8373 56.7621H22.6577C22.6895 57.2024 22.8645 57.5473 23.1825 57.7977C23.507 58.0423 23.8982 58.1639 24.3562 58.1639C24.7316 58.1639 25.0432 58.0908 25.2914 57.944C25.5459 57.7919 25.724 57.5909 25.8258 57.341H26.7609C26.621 57.7701 26.3411 58.1208 25.9212 58.393C25.5013 58.6589 24.9797 58.7921 24.3562 58.7921C23.8601 58.7921 23.4147 58.6972 23.0203 58.5068C22.6322 58.3165 22.3269 58.0477 22.1043 57.6999C21.8816 57.3463 21.7703 56.9384 21.7703 56.4763C21.7703 56.0147 21.8784 55.6098 22.0947 55.262C22.311 54.9138 22.6132 54.6473 23.0012 54.4633C23.3956 54.2724 23.8473 54.1775 24.3562 54.1775C24.8525 54.1775 25.2914 54.27 25.6731 54.455C26.0548 54.6396 26.3474 54.8949 26.551 55.2213C26.7609 55.542 26.8659 55.9058 26.8659 56.3136ZM25.9689 56.1586C25.9689 55.8762 25.8957 55.6345 25.7494 55.433C25.6031 55.2262 25.4027 55.0717 25.1483 54.9685C24.9002 54.8595 24.6234 54.8057 24.3181 54.8057C23.8792 54.8057 23.5038 54.9249 23.1921 55.1637C22.8867 55.403 22.7118 55.7348 22.6672 56.1586H25.9689ZM35.146 58.7757C34.707 58.7757 34.3127 58.7108 33.9627 58.58C33.6192 58.4444 33.3489 58.2593 33.1516 58.0259C32.9545 57.7866 32.8526 57.5119 32.8463 57.2024H33.7719C33.8037 57.4688 33.9309 57.6941 34.1536 57.8791C34.3826 58.0583 34.7134 58.1479 35.146 58.1479C35.5595 58.1479 35.884 58.0607 36.1193 57.8873C36.3611 57.7076 36.482 57.479 36.482 57.2024C36.482 56.9845 36.412 56.8086 36.272 56.672C36.132 56.5364 35.9571 56.4332 35.7472 56.3625C35.5372 56.2918 35.2542 56.2158 34.8979 56.1344C34.459 56.0365 34.1059 55.9387 33.8387 55.8408C33.5779 55.7425 33.352 55.5904 33.1612 55.3846C32.9767 55.1719 32.8844 54.8895 32.8844 54.5364C32.8844 54.2264 32.9767 53.9523 33.1612 53.713C33.3457 53.4737 33.6033 53.2892 33.9341 53.1584C34.2713 53.0281 34.6562 52.9627 35.0887 52.9627C35.7122 52.9627 36.2211 53.0959 36.6155 53.3623C37.0163 53.6287 37.2421 53.9818 37.293 54.4221H36.3388C36.3069 54.2046 36.1734 54.0143 35.938 53.8515C35.7026 53.683 35.3909 53.5987 35.0028 53.5987C34.6402 53.5987 34.3445 53.6801 34.1154 53.8433C33.8864 54.0007 33.7719 54.224 33.7719 54.5117C33.7719 54.7186 33.8387 54.8871 33.9723 55.0174C34.1122 55.1477 34.2808 55.248 34.478 55.3187C34.6816 55.3846 34.9647 55.4606 35.3273 55.5473C35.7663 55.6505 36.1193 55.7537 36.3865 55.8568C36.6537 55.9552 36.8827 56.1097 37.0735 56.3213C37.2644 56.5282 37.3598 56.8106 37.3598 57.1695C37.3598 57.447 37.274 57.7076 37.1022 57.9522C36.9304 58.1968 36.676 58.395 36.3388 58.5475C36.0017 58.6996 35.604 58.7757 35.146 58.7757ZM42.7982 58.719L40.7466 56.7457V58.719H39.8782V52.6856H40.7466V56.2317L42.76 54.2506H43.9719L41.5099 56.4763L43.9814 58.719H42.7982ZM46.4782 53.5255C46.3127 53.5255 46.1728 53.4761 46.0583 53.3788C45.9438 53.2809 45.8866 53.1608 45.8866 53.0198C45.8866 52.8789 45.9438 52.7588 46.0583 52.6609C46.1728 52.5631 46.3127 52.5142 46.4782 52.5142C46.6372 52.5142 46.7708 52.5631 46.8789 52.6609C46.9935 52.7588 47.0508 52.8789 47.0508 53.0198C47.0508 53.1608 46.9935 53.2809 46.8789 53.3788C46.7708 53.4761 46.6372 53.5255 46.4782 53.5255ZM46.898 54.2506V58.719H46.0297V54.2506H46.898ZM50.4869 52.6856V58.719H49.6185V52.6856H50.4869ZM54.0757 52.6856V58.719H53.2073V52.6856H54.0757ZM64.3402 53.0363V53.6398H61.4495V55.5556H63.7965V56.1586H61.4495V58.719H60.5809V53.0363H64.3402ZM67.0779 53.5255C66.913 53.5255 66.7729 53.4761 66.6578 53.3788C66.5439 53.2809 66.4866 53.1608 66.4866 53.0198C66.4866 52.8789 66.5439 52.7588 66.6578 52.6609C66.7729 52.5631 66.913 52.5142 67.0779 52.5142C67.2367 52.5142 67.3705 52.5631 67.4787 52.6609C67.5938 52.7588 67.6505 52.8789 67.6505 53.0198C67.6505 53.1608 67.5938 53.2809 67.4787 53.3788C67.3705 53.4761 67.2367 53.5255 67.0779 53.5255ZM67.498 54.2506V58.719H66.6301V54.2506H67.498ZM71.0867 54.9762C71.2392 54.7215 71.4558 54.5229 71.7352 54.3814C72.0215 54.24 72.3685 54.1693 72.7761 54.1693V54.9356H72.5465C71.5737 54.9356 71.0867 55.387 71.0867 56.2894V58.719H70.2187V54.2506H71.0867V54.9762ZM76.8699 58.7921C76.4691 58.7921 76.1102 58.735 75.7916 58.6212C75.4736 58.501 75.2224 58.3383 75.0382 58.1319C74.8534 57.9198 74.7513 57.6776 74.7326 57.4059H75.6295C75.655 57.6292 75.7758 57.8108 75.9923 57.9522C76.2146 58.0937 76.5043 58.1639 76.8603 58.1639C77.1908 58.1639 77.4522 58.1019 77.6432 57.9769C77.8337 57.852 77.9295 57.6941 77.9295 57.5037C77.9295 57.3085 77.8275 57.1642 77.6239 57.0716C77.4204 56.9743 77.1052 56.8789 76.6794 56.7863C76.2911 56.6996 75.9731 56.6125 75.7247 56.5258C75.4832 56.4332 75.2729 56.3 75.0949 56.1261C74.9237 55.9469 74.8375 55.713 74.8375 55.4248C74.8375 55.1966 74.9169 54.9874 75.0762 54.7975C75.2355 54.6071 75.4605 54.4575 75.7536 54.349C76.0462 54.2342 76.3801 54.1775 76.7554 54.1775C77.3342 54.1775 77.802 54.303 78.1586 54.5529C78.5146 54.8028 78.7051 55.1448 78.7312 55.5798H77.8626C77.8433 55.3463 77.7322 55.1584 77.5281 55.0174C77.3314 54.876 77.0644 54.8057 76.7265 54.8057C76.4147 54.8057 76.1669 54.8624 75.9827 54.9762C75.7984 55.0906 75.706 55.2397 75.706 55.4248C75.706 55.5715 75.7599 55.6941 75.8682 55.7919C75.9827 55.8844 76.1221 55.9605 76.2883 56.0201C76.4595 56.0743 76.6953 56.1373 76.9935 56.2075C77.3694 56.2947 77.675 56.3819 77.9102 56.4686C78.1455 56.55 78.3462 56.6749 78.5112 56.8435C78.683 57.0121 78.772 57.232 78.7782 57.5037C78.7782 57.7483 78.6988 57.9687 78.5401 58.1639C78.3808 58.3601 78.1552 58.5146 77.8626 58.6289C77.5763 58.7374 77.2452 58.7921 76.8699 58.7921ZM82.3039 54.8624V57.4955C82.3039 57.7134 82.3584 57.868 82.4661 57.9605C82.5744 58.0477 82.762 58.0908 83.0296 58.0908H83.6685V58.719H82.8862C82.4026 58.719 82.0403 58.6236 81.7982 58.4332C81.5567 58.2429 81.4354 57.9304 81.4354 57.4955V54.8624H80.7579V54.2506H81.4354V53.1259H82.3039V54.2506H83.6685V54.8624H82.3039ZM89.4212 55.8733C89.4212 55.3187 89.568 54.8212 89.8605 54.3814C90.1531 53.9358 90.5505 53.5875 91.0528 53.3376C91.5619 53.0877 92.1249 52.9627 92.7417 52.9627C93.4673 52.9627 94.1 53.1124 94.6409 53.4112C95.1817 53.7101 95.5763 54.1344 95.8246 54.6832H94.7838C94.5995 54.3407 94.3325 54.0768 93.9821 53.8917C93.6391 53.7077 93.2253 53.6151 92.7417 53.6151C92.2779 53.6151 91.8607 53.7077 91.4922 53.8917C91.1231 54.0768 90.834 54.3407 90.6236 54.6832C90.4139 55.0198 90.3084 55.4165 90.3084 55.8733C90.3084 56.3243 90.4139 56.7214 90.6236 57.0634C90.834 57.4005 91.1231 57.6616 91.4922 57.8462C91.8607 58.0312 92.2779 58.1237 92.7417 58.1237C93.2253 58.1237 93.6391 58.0341 93.9821 57.8544C94.3325 57.6694 94.5995 57.4059 94.7838 57.0634H95.8246C95.5763 57.6074 95.1817 58.0283 94.6409 58.3271C94.1 58.6212 93.4673 58.7674 92.7417 58.7674C92.1249 58.7674 91.5619 58.6449 91.0528 58.4003C90.5505 58.1503 90.1531 57.806 89.8605 57.3652C89.568 56.9249 89.4212 56.4279 89.4212 55.8733ZM100.638 58.7921C100.148 58.7921 99.703 58.6972 99.3022 58.5068C98.9076 58.3165 98.5958 58.0477 98.3673 57.6999C98.1445 57.3463 98.0328 56.9384 98.0328 56.4763C98.0328 56.0201 98.1473 55.618 98.3764 55.2703C98.6117 54.9167 98.9303 54.6473 99.3311 54.4633C99.7319 54.2724 100.18 54.1775 100.676 54.1775C101.172 54.1775 101.621 54.2724 102.022 54.4633C102.423 54.6473 102.737 54.9138 102.966 55.262C103.202 55.6098 103.319 56.0147 103.319 56.4763C103.319 56.9384 103.199 57.3463 102.957 57.6999C102.721 58.0477 102.4 58.3165 101.993 58.5068C101.586 58.6972 101.134 58.7921 100.638 58.7921ZM100.638 58.1402C100.95 58.1402 101.242 58.0772 101.515 57.9522C101.789 57.8273 102.009 57.6398 102.175 57.3899C102.346 57.1399 102.432 56.8353 102.432 56.4763C102.432 56.1179 102.349 55.8132 102.183 55.5633C102.018 55.3134 101.802 55.1288 101.535 55.0092C101.268 54.8842 100.979 54.8212 100.667 54.8212C100.348 54.8212 100.056 54.8842 99.7886 55.0092C99.5278 55.1288 99.3181 55.3134 99.1587 55.5633C99 55.8132 98.9206 56.1179 98.9206 56.4763C98.9206 56.8406 98.9966 57.1477 99.1497 57.3976C99.3084 57.6476 99.5187 57.8355 99.779 57.9605C100.04 58.0801 100.326 58.1402 100.638 58.1402ZM111.99 54.1693C112.397 54.1693 112.76 54.2424 113.078 54.3897C113.396 54.5311 113.647 54.7452 113.831 55.0339C114.016 55.3216 114.108 55.6723 114.108 56.085V58.719H113.25V56.1915C113.25 55.7454 113.119 55.4059 112.859 55.1719C112.604 54.9331 112.257 54.813 111.818 54.813C111.366 54.813 111.007 54.9385 110.74 55.1884C110.473 55.433 110.339 55.789 110.339 56.2564V58.719H109.481V56.1915C109.481 55.7454 109.35 55.4059 109.089 55.1719C108.835 54.9331 108.488 54.813 108.049 54.813C107.597 54.813 107.238 54.9385 106.97 55.1884C106.703 55.433 106.57 55.789 106.57 56.2564V58.719H105.702V54.2506H106.57V54.8949C106.742 54.6609 106.97 54.4817 107.257 54.3567C107.549 54.2318 107.871 54.1693 108.221 54.1693C108.66 54.1693 109.048 54.2536 109.385 54.4221C109.722 54.5907 109.973 54.8377 110.139 55.1637C110.285 54.8488 110.527 54.6042 110.864 54.4303C111.201 54.2565 111.576 54.1693 111.99 54.1693ZM117.642 55.0741C117.814 54.8188 118.068 54.6071 118.405 54.4386C118.749 54.2647 119.146 54.1775 119.598 54.1775C120.062 54.1775 120.482 54.2724 120.857 54.4633C121.239 54.6532 121.538 54.922 121.754 55.2703C121.971 55.6127 122.079 56.0118 122.079 56.4686C122.079 56.9196 121.971 57.3216 121.754 57.6752C121.538 58.0283 121.239 58.3029 120.857 58.4986C120.482 58.6943 120.062 58.7921 119.598 58.7921C119.153 58.7921 118.759 58.7079 118.414 58.5393C118.078 58.3654 117.82 58.1503 117.642 57.8951V60.8381H116.773V54.2506H117.642V55.0741ZM121.192 56.4686C121.192 56.1315 121.112 55.8379 120.953 55.588C120.794 55.3381 120.578 55.1477 120.304 55.0174C120.037 54.8871 119.741 54.8212 119.417 54.8212C119.098 54.8212 118.803 54.8895 118.529 55.0256C118.262 55.1559 118.046 55.3487 117.88 55.6045C117.721 55.8544 117.642 56.145 117.642 56.4763C117.642 56.8135 117.721 57.1099 117.88 57.3652C118.046 57.6156 118.262 57.8084 118.529 57.944C118.803 58.0743 119.098 58.1402 119.417 58.1402C119.741 58.1402 120.037 58.0743 120.304 57.944C120.578 57.8084 120.794 57.6156 120.953 57.3652C121.112 57.1099 121.192 56.8106 121.192 56.4686ZM124.138 56.4686C124.138 56.0118 124.246 55.6127 124.462 55.2703C124.678 54.922 124.974 54.6532 125.35 54.4633C125.731 54.2724 126.155 54.1775 126.619 54.1775C127.077 54.1775 127.475 54.2618 127.812 54.4303C128.149 54.5989 128.4 54.8106 128.565 55.0658V54.2506H129.444V58.719H128.565V57.8873C128.394 58.1479 128.137 58.3654 127.793 58.5393C127.456 58.7079 127.061 58.7921 126.609 58.7921C126.145 58.7921 125.725 58.6943 125.35 58.4986C124.974 58.3029 124.678 58.0283 124.462 57.6752C124.246 57.3216 124.138 56.9196 124.138 56.4686ZM128.565 56.4763C128.565 56.1397 128.486 55.8462 128.327 55.5962C128.168 55.3463 127.951 55.1559 127.678 55.0256C127.411 54.8895 127.115 54.8212 126.791 54.8212C126.467 54.8212 126.171 54.8871 125.903 55.0174C125.636 55.1477 125.423 55.3381 125.264 55.588C125.105 55.8379 125.025 56.1315 125.025 56.4686C125.025 56.8106 125.105 57.1099 125.264 57.3652C125.423 57.6156 125.636 57.8084 125.903 57.944C126.171 58.0743 126.467 58.1402 126.791 58.1402C127.115 58.1402 127.411 58.0743 127.678 57.944C127.951 57.8084 128.168 57.6156 128.327 57.3652C128.486 57.1099 128.565 56.8135 128.565 56.4763ZM134.699 54.1693C135.336 54.1693 135.851 54.3349 136.245 54.6667C136.64 54.9927 136.837 55.4659 136.837 56.085V58.719H135.978V56.1915C135.978 55.7454 135.848 55.4059 135.587 55.1719C135.326 54.9331 134.97 54.813 134.518 54.813C134.06 54.813 133.694 54.9355 133.421 55.1802C133.154 55.4248 133.02 55.7808 133.02 56.2482V58.719H132.151V54.2506H133.02V54.8871C133.192 54.6585 133.423 54.4817 133.716 54.3567C134.015 54.2318 134.343 54.1693 134.699 54.1693ZM144 54.2506L140.851 60.8217H139.954L140.985 58.6696L138.876 54.2506H139.839L141.481 57.8709L143.103 54.2506H144Z" fill="#1F3287"/>
<path d="M36.7502 21.3984L16.1929 32.7086L24.6994 30.1357L27.3316 32.7086C29.6908 28.0649 34.5934 23.2333 36.7502 21.3984Z" fill="url(#paint0_linear_4012_87)"/>
<path d="M141.997 46.3943C143.105 46.3943 144.003 45.6272 144.003 44.6808C144.003 43.7345 143.105 42.9673 141.997 42.9673C140.89 42.9673 139.992 43.7345 139.992 44.6808C139.992 45.6272 140.89 46.3943 141.997 46.3943Z" fill="url(#paint1_linear_4012_87)"/>
</g>
<defs>
<linearGradient id="paint0_linear_4012_87" x1="36.7007" y1="21.4623" x2="18.1544" y2="35.4397" gradientUnits="userSpaceOnUse">
<stop stop-color="#22D077"/>
<stop offset="1" stop-color="#14F1FC"/>
</linearGradient>
<linearGradient id="paint1_linear_4012_87" x1="141.997" y1="42.9673" x2="141.997" y2="46.3943" gradientUnits="userSpaceOnUse">
<stop stop-color="#22D077"/>
<stop offset="1" stop-color="#14F1FC"/>
</linearGradient>
</defs>
</svg>
