<svg width="88" height="112" viewBox="0 0 88 112" fill="none" xmlns="http://www.w3.org/2000/svg">
<mask id="mask0_6_21" style="mask-type:luminance" maskUnits="userSpaceOnUse" x="0" y="0" width="88" height="112">
<path d="M88 0H0V112H88V0Z" fill="white"/>
</mask>
<g mask="url(#mask0_6_21)">
<path d="M0.42746 24.235L13.8778 117.795L15.3512 47.5601M0.42746 24.235L23.1459 10.1049M0.42746 24.235L15.3512 47.5601M15.3512 47.5601L35.7407 55.7681L59.2431 51.3784M15.3512 47.5601L28.8967 26.9364M23.1459 10.1049L50.0941 11.2477L74.3809 26.9364M23.1459 10.1049L28.8967 26.9364M59.2431 51.3784L83.0784 47.5601L74.3809 26.9364M59.2431 51.3784L55.6548 36.443M28.8967 26.9364L55.6548 36.443M74.3809 26.9364L55.6548 36.443" stroke="#BDD5EA" stroke-width="0.707521"/>
<path fill-rule="evenodd" clip-rule="evenodd" d="M13.6358 117.848L35.6994 56.1975L59.6904 51.717L83.632 47.8907L83.6443 62.8341L59.2389 93.3282H51.2303L57.0289 117.848H50.0897L35.6412 95.4061L20.8126 117.848H13.6358ZM29.6987 85.3311L68.6719 57.8998C64.5828 62.3501 55.2884 74.0684 50.8157 85.3311L45.8255 79.091L29.6987 85.3311Z" fill="#1F3287"/>
<path d="M28.9454 11.7144C28.9454 14.8704 26.6047 17.4287 23.7173 17.4287C20.8299 17.4287 18.4892 14.8704 18.4892 11.7144C18.4892 8.55842 20.8299 6 23.7173 6C26.6047 6 28.9454 8.55842 28.9454 11.7144Z" fill="#00A5CF"/>
<path d="M31.6994 27.613C31.6994 29.3344 30.4227 30.7299 28.8477 30.7299C27.2727 30.7299 25.9961 29.3344 25.9961 27.613C25.9961 25.8914 27.2727 24.4959 28.8477 24.4959C30.4227 24.4959 31.6994 25.8914 31.6994 27.613Z" fill="#00A5CF"/>
<path d="M57.7448 36.1314C57.7448 37.566 56.6809 38.729 55.3685 38.729C54.056 38.729 52.9921 37.566 52.9921 36.1314C52.9921 34.6969 54.056 33.534 55.3685 33.534C56.6809 33.534 57.7448 34.6969 57.7448 36.1314Z" fill="#00A5CF"/>
<path d="M3.75278 24.8058C3.75278 26.2403 2.68884 27.4032 1.3764 27.4032C0.0639444 27.4032 -1 26.2403 -1 24.8058C-1 23.3713 0.0639444 22.2083 1.3764 22.2083C2.68884 22.2083 3.75278 23.3713 3.75278 24.8058Z" fill="#00A5CF"/>
<path d="M52.3288 11.4036C52.3288 12.8382 51.2647 14.0011 49.9523 14.0011C48.6399 14.0011 47.576 12.8382 47.576 11.4036C47.576 9.96911 48.6399 8.80618 49.9523 8.80618C51.2647 8.80618 52.3288 9.96911 52.3288 11.4036Z" fill="#00A5CF"/>
<path d="M76.8512 27.5083C76.8512 29.5166 75.3616 31.1447 73.5243 31.1447C71.6869 31.1447 70.1973 29.5166 70.1973 27.5083C70.1973 25.5 71.6869 23.8719 73.5243 23.8719C75.3616 23.8719 76.8512 25.5 76.8512 27.5083Z" fill="#00A5CF"/>
<path d="M20.0077 46.6256C20.0077 49.2079 18.0925 51.3011 15.7301 51.3011C13.3678 51.3011 11.4526 49.2079 11.4526 46.6256C11.4526 44.0435 13.3678 41.9503 15.7301 41.9503C18.0925 41.9503 20.0077 44.0435 20.0077 46.6256Z" fill="#00A5CF"/>
<path d="M68.6723 57.8992L29.699 85.3304L45.8259 79.0903L50.816 85.3304C55.2887 74.0678 64.5832 62.3495 68.6723 57.8992Z" fill="url(#paint0_linear_6_21)"/>
</g>
<defs>
<linearGradient id="paint0_linear_6_21" x1="68.5784" y1="58.0542" x2="27.6506" y2="82.1648" gradientUnits="userSpaceOnUse">
<stop stop-color="#22D077"/>
<stop offset="1" stop-color="#14F1FC"/>
</linearGradient>
</defs>
</svg>
